<?xml version="1.0" encoding="UTF-8"?>
<svg id="Layer_2" data-name="Layer 2" xmlns="http://www.w3.org/2000/svg" viewBox="0 0 127.7 98.18">
  <defs>
    <style>
      .cls-1 {
        stroke-width: 0px;
      }
    </style>
  </defs>
  <!-- <g id="Layer_1-2" data-name="Layer 1" fill="#00a071"> -->
  <!-- <g id="Layer_1-2" data-name="Layer 1" fill="currentColor"> -->
  <g id="Layer_1-2" data-name="Layer 1">
    <g>
      <g>
        <g>
          <path class="cls-1" d="M8.63,56.02c3.31-.92,5.91-3.38,5.91-7.09,0-4.92-3.45-7.45-8.63-7.45H0v24.48h3.87v-9.55h.26l8.11,9.55h4.72l-8.33-9.94ZM3.87,53.16v-8.2h2.07c3.22,0,4.73,1.8,4.73,4,0,2.49-1.9,4.2-4.76,4.2h-2.03Z"/>
          <path class="cls-1" d="M28.76,62.58v-7.81h8.24v-3.25h-8.24v-6.66h8.96v-3.38h-12.83v24.48h13.09v-3.38h-9.22Z"/>
          <path class="cls-1" d="M58.81,63.2c-5.68,0-9.52-4.43-9.52-9.55s3.84-9.42,9.52-9.42c2.13,0,4.1.62,5.77,1.67l1.74-2.95c-2.66-1.64-4.92-2.26-7.61-2.26-7.91,0-13.32,5.81-13.32,12.99s5.41,13.06,13.32,13.06c2.69,0,5.02-.66,7.61-2.26l-1.74-2.95c-1.9,1.12-3.77,1.67-5.77,1.67Z"/>
          <path class="cls-1" d="M76.19,41.48v24.48h3.87v-24.48h-3.87Z"/>
          <path class="cls-1" d="M97.75,41.48h-6.2v24.48h3.87v-9.22h2.16c4.66,0,8.96-2.56,8.99-7.68-.03-5.45-3.51-7.58-8.83-7.58ZM98.01,53.23h-2.59v-8.27h2.59c3.45,0,4.66,1.77,4.69,4.1,0,2.53-1.94,4.17-4.69,4.17Z"/>
          <path class="cls-1" d="M118.48,62.58v-7.81h8.24v-3.25h-8.24v-6.66h8.96v-3.38h-12.83v24.48h13.09v-3.38h-9.22Z"/>
        </g>
        <g>
          <path class="cls-1" d="M40.88,28.48l-.67,1.56h3.6c-.29,1.95-1.93,3.51-3.93,3.51-2.48,0-4.46-2.04-4.46-4.46s1.98-4.4,4.46-4.4c1.17,0,2.22.43,3.08,1.21l1.2-1.27c-1.06-.97-2.62-1.59-4.28-1.59-3.52,0-6.29,2.71-6.29,6.07s2.76,6.1,6.29,6.1c3.24,0,5.8-2.71,5.8-6.09v-.64h-4.8Z"/>
          <path class="cls-1" d="M49.96,33.26v-3.65h3.85v-1.52h-3.85v-3.11h4.19v-1.58h-5.99v11.44h6.12v-1.58h-4.31Z"/>
          <path class="cls-1" d="M56.27,23.41v1.61h2.04v9.83h1.81v-9.83h2.04v-1.61h-5.89Z"/>
          <path class="cls-1" d="M68.14,23.41v1.61h2.04v9.83h1.81v-9.83h2.04v-1.61h-5.89Z"/>
          <path class="cls-1" d="M83.1,23.41v4.54h-5.13v-4.54h-1.81v11.44h1.81v-5.29h5.13v5.29h1.81v-11.44h-1.81Z"/>
          <path class="cls-1" d="M89.8,33.26v-3.65h3.85v-1.52h-3.85v-3.11h4.19v-1.58h-5.99v11.44h6.12v-1.58h-4.31Z"/>
        </g>
      </g>
      <path class="cls-1" d="M109.08,29.98c-2.47-5.85-6.01-11.1-10.52-15.6-4.51-4.51-9.76-8.05-15.6-10.52-6.05-2.56-12.48-3.86-19.11-3.86-5.84,0-11.55,1.02-16.98,3.02-5.25,1.93-10.09,4.74-14.41,8.33-4.34,3.61-8,7.93-10.84,12.72-2.4,4.03-4.21,8.4-5.37,12.97h3.59c2.45-8.95,7.64-17.03,14.84-23.02,4.01-3.34,8.51-5.94,13.39-7.74,5.04-1.86,10.35-2.8,15.78-2.8,12.19,0,23.64,4.75,32.26,13.36,5.69,5.69,9.7,12.63,11.76,20.19h3.58c-.61-2.4-1.39-4.75-2.37-7.04ZM96.11,81.35c-8.62,8.62-20.07,13.36-32.26,13.36s-23.64-4.75-32.26-13.36c-2.43-2.43-4.55-5.09-6.35-7.93h-4.04c2.16,3.78,4.82,7.26,7.94,10.38,4.51,4.51,9.76,8.05,15.6,10.52,6.05,2.56,12.48,3.86,19.11,3.86s13.06-1.3,19.11-3.86c5.85-2.47,11.1-6.01,15.6-10.52,3.12-3.12,5.78-6.6,7.94-10.38h-4.04c-1.8,2.84-3.92,5.49-6.35,7.93Z"/>
    </g>
  </g>
</svg>